<svg width="58" height="58" viewBox="0 0 58 58" fill="none" xmlns="http://www.w3.org/2000/svg">
<path d="M7.99978 29.2438C7.99978 33.4454 9.24571 37.5526 11.58 41.0462C13.9143 44.5397 17.2321 47.2625 21.1139 48.8704C24.9957 50.4783 29.2671 50.899 33.388 50.0793C37.5089 49.2596 41.2942 47.2364 44.2651 44.2654C47.2361 41.2944 49.2594 37.5091 50.0791 33.3882C50.8988 29.2673 50.4781 24.9959 48.8702 21.1141C47.2623 17.2323 44.5395 13.9145 41.0459 11.5802C37.5524 9.24592 33.4452 8 29.2435 8" stroke="white" stroke-width="15"/>
<path d="M29.2437 8.00038C26.4539 8.00038 23.6914 8.54987 21.114 9.61747C18.5366 10.6851 16.1947 12.2499 14.222 14.2225C12.2494 16.1952 10.6846 18.5371 9.61698 21.1145C8.54938 23.6919 7.9999 26.4544 7.9999 29.2441" stroke="#005CFF" stroke-width="15"/>
<mask id="path-3-inside-1_363_1635" fill="white">
<path d="M25.1822 37.4918H33.368C33.7338 37.4918 34.1431 37.2104 34.2737 36.8863L37.7918 27.2395C38.3492 25.6957 37.6961 25.2095 36.3376 26.1648L33.1503 28.391C32.593 28.7748 31.9486 28.5786 31.7047 27.9559L30.1721 23.9557C29.6844 22.6762 28.8746 22.6762 28.3869 23.9557L26.8542 27.9559C26.6104 28.5786 25.966 28.7748 25.4 28.391L22.0037 26.0112C20.7671 25.1412 20.1663 25.5762 20.6801 26.9921L24.2853 36.8692C24.4072 37.2104 24.8165 37.4918 25.1822 37.4918Z"/>
</mask>
<path d="M27.0981 33.2442V39.7442H31.4522V33.2442V26.7442H27.0981V33.2442ZM24.2853 36.8692L36.5272 32.4947L36.5123 32.4531L36.4972 32.4117L24.2853 36.8692ZM20.6801 26.9921L8.45976 31.4266L8.46394 31.4381L8.46814 31.4496L20.6801 26.9921ZM22.0037 26.0112L14.5234 36.6435L14.5336 36.6506L14.5438 36.6578L22.0037 26.0112ZM25.4 28.391L17.94 39.0375L18.0216 39.0947L18.104 39.1506L25.4 28.391ZM26.8542 27.9559L38.9592 32.6963L38.9766 32.6517L38.9937 32.607L26.8542 27.9559ZM28.3869 23.9557L40.5264 28.6067L40.5304 28.5963L40.5344 28.5858L28.3869 23.9557ZM30.1721 23.9557L18.0246 28.5858L18.0286 28.5963L18.0326 28.6067L30.1721 23.9557ZM31.7047 27.9559L19.5652 32.607L19.5824 32.6517L19.5998 32.6963L31.7047 27.9559ZM33.1503 28.391L40.5238 39.0976L40.5592 39.0732L40.5944 39.0486L33.1503 28.391ZM36.3376 26.1648L43.7816 36.8225L43.7985 36.8106L43.8154 36.7988L36.3376 26.1648ZM37.7918 27.2395L50.005 31.6936L50.0123 31.6737L50.0195 31.6537L37.7918 27.2395ZM34.2737 36.8863L46.3313 41.7457L46.4125 41.5443L46.4868 41.3403L34.2737 36.8863ZM33.368 37.4918V24.4918H25.1822V37.4918V50.4918H33.368V37.4918ZM25.1822 37.4918V24.4918C28.166 24.4918 30.5041 25.5554 32.041 26.6192C33.5676 27.6759 35.4733 29.5454 36.5272 32.4947L24.2853 36.8692L12.0434 41.2437C13.2192 44.5341 15.3905 46.715 17.2437 47.9977C19.1071 49.2875 21.8327 50.4918 25.1822 50.4918V37.4918ZM24.2853 36.8692L36.4972 32.4117L32.892 22.5346L20.6801 26.9921L8.46814 31.4496L12.0734 41.3267L24.2853 36.8692ZM20.6801 26.9921L32.9004 22.5577C33.0532 22.9789 33.5242 24.3536 33.4948 26.3146C33.4669 28.1669 32.8669 32.8218 28.3894 36.1159C24.0003 39.345 19.4877 38.5966 17.8435 38.1568C16.0312 37.672 14.8826 36.8962 14.5234 36.6435L22.0037 26.0112L29.4841 15.379C28.5065 14.6913 26.8192 13.6436 24.5624 13.0399C22.4738 12.4812 17.6113 11.767 12.9816 15.1731C8.26356 18.6442 7.53235 23.6189 7.4977 25.9238C7.46142 28.3374 8.05 30.2974 8.45976 31.4266L20.6801 26.9921ZM22.0037 26.0112L14.5438 36.6578L17.94 39.0375L25.4 28.391L32.8599 17.7444L29.4637 15.3647L22.0037 26.0112ZM25.4 28.391L18.104 39.1506C21.2009 41.2505 25.518 42.3456 29.992 41.0001C34.4897 39.6474 37.5464 36.304 38.9592 32.6963L26.8542 27.9559L14.7493 23.2156C15.9183 20.2306 18.5308 17.2966 22.5039 16.1017C26.4532 14.914 30.165 15.9152 32.6959 17.6313L25.4 28.391ZM26.8542 27.9559L38.9937 32.607L40.5264 28.6067L28.3869 23.9557L16.2474 19.3046L14.7147 23.3049L26.8542 27.9559ZM28.3869 23.9557L40.5344 28.5858C40.2856 29.2385 39.6511 30.6936 38.2223 32.1957C36.7408 33.7532 33.7148 35.9961 29.2795 35.9961C24.8442 35.9961 21.8182 33.7532 20.3367 32.1957C18.9079 30.6936 18.2734 29.2385 18.0246 28.5858L30.1721 23.9557L42.3196 19.3255C41.827 18.0331 40.9084 16.0983 39.1753 14.2763C37.3896 12.3989 34.0392 9.99609 29.2795 9.99609C24.5198 9.99609 21.1694 12.3989 19.3837 14.2763C17.6506 16.0983 16.732 18.0331 16.2394 19.3255L28.3869 23.9557ZM30.1721 23.9557L18.0326 28.6067L19.5652 32.607L31.7047 27.9559L43.8443 23.3049L42.3116 19.3046L30.1721 23.9557ZM31.7047 27.9559L19.5998 32.6963C21.0102 36.2977 24.0602 39.6393 28.5516 40.9958C33.0337 42.3493 37.3887 41.2567 40.5238 39.0976L33.1503 28.391L25.7769 17.6843C28.3546 15.9091 32.1087 14.9102 36.0683 16.106C40.0373 17.3046 42.6432 20.2369 43.8097 23.2156L31.7047 27.9559ZM33.1503 28.391L40.5944 39.0486L43.7816 36.8225L36.3376 26.1648L28.8935 15.5071L25.7063 17.7333L33.1503 28.391ZM36.3376 26.1648L43.8154 36.7988C43.4845 37.0315 42.3541 37.7991 40.5509 38.2776C38.9029 38.715 34.4072 39.442 30.0457 36.2116C25.617 32.9314 25.0226 28.3238 24.9925 26.5001C24.9607 24.5656 25.4218 23.2199 25.5642 22.8252L37.7918 27.2395L50.0195 31.6537C50.4406 30.4872 51.029 28.5018 50.989 26.0718C50.9508 23.7525 50.2127 18.7937 45.5206 15.3183C40.8956 11.8928 36.0168 12.5809 33.8817 13.1475C31.5914 13.7553 29.8699 14.8204 28.8597 15.5308L36.3376 26.1648ZM37.7918 27.2395L25.5787 22.7854L22.0605 32.4322L34.2737 36.8863L46.4868 41.3403L50.005 31.6936L37.7918 27.2395ZM34.2737 36.8863L22.2161 32.0268C23.3412 29.2351 25.2009 27.5036 26.6389 26.5336C28.0965 25.5503 30.3912 24.4918 33.368 24.4918V37.4918V50.4918C36.7106 50.4918 39.3929 49.2927 41.1792 48.0876C42.9459 46.8958 45.0756 44.8615 46.3313 41.7457L34.2737 36.8863Z" fill="white" mask="url(#path-3-inside-1_363_1635)"/>
</svg>
